<?xml version="1.0" standalone="no"?>
<!DOCTYPE svg PUBLIC "-//W3C//DTD SVG 20010904//EN"
 "http://www.w3.org/TR/2001/REC-SVG-20010904/DTD/svg10.dtd">
<svg version="1.0" xmlns="http://www.w3.org/2000/svg"
 width="180.000000pt" height="180.000000pt" viewBox="0 0 180.000000 180.000000"
 preserveAspectRatio="xMidYMid meet">
<metadata>
Created by potrace 1.11, written by Peter Selinger 2001-2013
</metadata>
<g transform="translate(0.000000,180.000000) scale(0.100000,-0.100000)"
fill="#000000" stroke="none">
<path d="M720 1771 c-349 -75 -619 -346 -691 -696 -61 -297 36 -604 259 -817
357 -341 912 -328 1254 30 330 346 330 878 0 1224 -214 224 -525 322 -822 259z
m375 -136 c205 -55 388 -206 484 -400 60 -120 75 -189 75 -335 0 -146 -15
-215 -75 -335 -76 -154 -190 -268 -344 -344 -120 -60 -189 -75 -335 -75 -146
0 -215 15 -335 75 -196 97 -344 278 -401 489 -25 89 -25 291 0 380 77 286 318
507 608 560 72 12 249 4 323 -15z"/>
<path d="M457 1067 c-9 -30 -17 -59 -17 -65 0 -18 21 -15 35 5 12 16 24 14 57
-9 28 -20 31 -3 11 59 -16 48 -24 59 -44 61 -22 3 -27 -3 -42 -51z m45 -19
c-9 -9 -12 -7 -12 12 0 19 3 21 12 12 9 -9 9 -15 0 -24z"/>
<path d="M564 1103 c3 -10 10 -40 17 -66 10 -40 15 -48 33 -45 14 2 22 12 24
28 5 33 22 51 22 23 0 -34 11 -53 30 -53 13 0 21 15 33 62 9 34 14 64 12 66
-11 12 -35 -10 -35 -32 0 -40 -18 -40 -26 -1 -9 48 -35 43 -50 -10 l-11 -40
-9 40 c-6 26 -16 41 -28 43 -13 3 -17 -1 -12 -15z"/>
<path d="M761 1058 c-22 -65 -21 -80 7 -60 33 23 45 25 57 9 14 -20 35 -23 35
-5 0 6 -8 35 -17 65 -14 43 -21 53 -39 53 -18 0 -26 -11 -43 -62z m49 0 c0
-16 -3 -19 -11 -11 -6 6 -8 16 -5 22 11 17 16 13 16 -11z"/>
<path d="M884 1106 c-3 -7 -4 -35 -2 -62 2 -36 7 -49 18 -49 11 0 16 15 18 63
2 51 0 62 -13 62 -9 0 -18 -6 -21 -14z"/>
<path d="M940 1105 c0 -8 7 -15 15 -15 11 0 15 -12 15 -50 0 -38 4 -50 15 -50
11 0 15 12 15 50 0 38 4 50 15 50 8 0 15 7 15 15 0 11 -12 15 -45 15 -33 0
-45 -4 -45 -15z"/>
<path d="M1050 1055 c0 -51 3 -65 15 -65 12 0 15 14 15 65 0 51 -3 65 -15 65
-12 0 -15 -14 -15 -65z"/>
<path d="M1112 1058 c4 -73 25 -92 30 -26 l3 43 23 -42 c15 -29 29 -43 42 -43
18 0 20 7 20 65 0 51 -3 65 -15 65 -11 0 -15 -11 -15 -37 l-1 -38 -20 38 c-15
28 -26 37 -45 37 -24 0 -25 -2 -22 -62z"/>
<path d="M1277 1102 c-10 -10 -17 -32 -17 -49 0 -40 29 -65 72 -61 30 3 33 6
33 38 0 26 -5 36 -19 38 -22 5 -48 -18 -28 -25 17 -6 15 -23 -2 -23 -18 0 -29
31 -20 54 4 10 17 16 35 16 19 0 29 5 29 15 0 22 -63 20 -83 -3z"/>
<path d="M673 930 c-66 -27 -85 -163 -31 -217 34 -33 102 -42 147 -18 82 42
80 196 -3 230 -39 17 -80 18 -113 5z m99 -57 c12 -11 18 -30 18 -61 0 -56 -21
-82 -66 -82 -40 0 -54 21 -54 80 0 58 14 80 52 80 17 0 40 -7 50 -17z"/>
<path d="M950 922 c-39 -19 -70 -71 -70 -117 0 -41 30 -97 60 -112 30 -15 89
-17 125 -3 25 9 26 13 23 72 l-3 61 -45 0 c-38 0 -45 -3 -48 -21 -2 -15 3 -21
20 -24 29 -4 38 -44 11 -50 -22 -5 -65 9 -75 25 -4 7 -8 31 -8 55 0 59 27 84
87 81 34 -2 47 1 54 14 8 14 5 19 -16 27 -39 15 -75 12 -115 -8z"/>
<path d="M1182 920 c-41 -25 -55 -61 -50 -128 6 -71 37 -103 105 -109 66 -6
108 21 123 78 21 76 -2 142 -55 165 -47 19 -84 18 -123 -6z m112 -52 c9 -12
16 -38 16 -58 0 -51 -24 -80 -64 -80 -19 0 -38 6 -44 13 -20 24 -23 74 -8 111
13 32 19 36 50 36 25 0 39 -6 50 -22z"/>
<path d="M432 808 l3 -123 75 0 c68 0 75 2 75 20 0 17 -8 20 -47 23 l-48 3 0
100 0 99 -30 0 -31 0 3 -122z"/>
</g>
</svg>
